<svg
                  width="32"
                  height="32"
                  viewBox="0 0 32 32"
                  fill="none"
                  xmlns="http://www.w3.org/2000/svg"
                >
                  <path
                    fill-rule="evenodd"
                    clip-rule="evenodd"
                    d="M15.9996 23.3845C15.9996 23.3845 22.1534 19.3565 22.1534 14.6572C22.1534 13.0548 21.505 11.518 20.351 10.3849C19.1969 9.2518 17.6317 8.61523 15.9996 8.61523C14.3674 8.61523 12.8022 9.2518 11.6481 10.3849C10.4941 11.518 9.8457 13.0548 9.8457 14.6572C9.8457 19.3565 15.9996 23.3845 15.9996 23.3845ZM15.9995 16.6712C17.1324 16.6712 18.0508 15.7695 18.0508 14.6572C18.0508 13.5449 17.1324 12.6432 15.9995 12.6432C14.8666 12.6432 13.9482 13.5449 13.9482 14.6572C13.9482 15.7695 14.8666 16.6712 15.9995 16.6712Z"
                    stroke="#0071FF"
                    stroke-width="2"
                    stroke-linecap="round"
                    stroke-linejoin="round"
                  />
                </svg>