<svg width="28" height="29" viewBox="0 0 28 29" fill="none" xmlns="http://www.w3.org/2000/svg">
<path d="M19.6 10.8887H8.4C7.6268 10.8887 7 11.5354 7 12.3331V19.5551C7 20.3528 7.6268 20.9995 8.4 20.9995H19.6C20.3732 20.9995 21 20.3528 21 19.5551V12.3331C21 11.5354 20.3732 10.8887 19.6 10.8887Z" stroke="#1370E5" stroke-width="2" stroke-linecap="round" stroke-linejoin="round"/>
<path d="M16.7982 20.9996V9.4444C16.7982 9.06132 16.6507 8.69393 16.3882 8.42306C16.1256 8.15218 15.7695 8 15.3982 8H12.5982C12.2269 8 11.8708 8.15218 11.6083 8.42306C11.3457 8.69393 11.1982 9.06132 11.1982 9.4444V20.9996" stroke="#1370E5" stroke-width="2" stroke-linecap="round" stroke-linejoin="round"/>
</svg>